# xmcd
#
# Track frame offsets: 
#        150
#        12104
#        23991
#        35698
#        55288
#        75660
#        103471
#        123549
#        148094
#        170186
#        186914
#        201769
#        219796
#        236524
#        260194
#        281928
#        300858
#
# Disc length: 4298 seconds
#
# Revision: 0
# Processed by: cddbd v1.5.2PL0 Copyright (c) Steve Scherf et al.
# Submitted via: ExactAudioCopy v0.95b3
#
DISCID=0010c811
DTITLE=Va  - Capitol Records 50th Anniversary 1942-1992 - Disc 6
DYEAR=1900
DGENRE=
TTITLE0=Gene Vincent - Be-Bop-A-Lula
TTITLE1=Johnny Otis Show - Willie and the Hand Jive
TTITLE2=The Beatles - Twist And Shout
TTITLE3=The Beatles - Come Together
TTITLE4=The Band - Up On Cripple Creek
TTITLE5=Pink Floyd - Money
TTITLE6=Steve Miller Band - The Joker
TTITLE7=Bob Seger - Night Moves
TTITLE8=Iron Maiden - The Number Of The Beast
TTITLE9=Billy Squier - The Stroke
TTITLE10=The Motels - Only The Lonely
TTITLE11=The Tubes - She's a Beauty
TTITLE12=Heart - What About Love?
TTITLE13=Great White - Rock Me
TTITLE14=Joe Cocker - When the Night Comes
TTITLE15=Smithereens - A Girl Like You
TTITLE16=Richard Marx - Hazard
EXTD=
EXTT0=
EXTT1=
EXTT2=
EXTT3=
EXTT4=
EXTT5=
EXTT6=
EXTT7=
EXTT8=
EXTT9=
EXTT10=
EXTT11=
EXTT12=
EXTT13=
EXTT14=
EXTT15=
EXTT16=
PLAYORDER=
